<svg width="400" height="250" viewBox="0 0 400 250" fill="none" xmlns="http://www.w3.org/2000/svg">
<path d="M0 5C0 2.23857 2.23858 0 5 0H387.403C391.93 0 394.126 5.53469 390.832 8.63895L377.434 21.2637C375.506 23.0805 375.33 26.0859 377.033 28.1157L393.112 47.2869C395.841 50.5406 393.527 55.5 389.281 55.5H382.161C378.427 55.5 376.011 59.4443 377.707 62.7709L398.514 103.586C399.417 105.356 399.186 107.493 397.925 109.029L369.135 144.117C368.401 145.011 368 146.132 368 147.289V151.296C368 155.04 371.964 157.456 375.291 155.74L383.323 151.599C387.876 149.251 392.594 154.456 389.813 158.758L371.795 186.63C369.934 189.509 371.456 193.364 374.781 194.195L393.376 198.844C396.656 199.664 398.193 203.436 396.421 206.315L382.248 229.347C380.955 231.449 381.388 234.18 383.268 235.778L389.636 241.19C393.18 244.203 391.05 250 386.397 250H5C2.23857 250 0 247.761 0 245V5Z" fill="url(#paint0_linear_32_140)"/>
<defs>
<linearGradient id="paint0_linear_32_140" x1="111.5" y1="21.5" x2="316" y2="240.5" gradientUnits="userSpaceOnUse">
<stop stop-color="#28A745"/>
<stop offset="1" stop-color="#1B6D4F"/>
</linearGradient>
</defs>
</svg>
